<?xml version="1.0" encoding="UTF-8" standalone="no"?>
<!-- Created with Inkscape (http://www.inkscape.org/) -->
<svg
   xmlns:dc="http://purl.org/dc/elements/1.1/"
   xmlns:cc="http://web.resource.org/cc/"
   xmlns:rdf="http://www.w3.org/1999/02/22-rdf-syntax-ns#"
   xmlns:svg="http://www.w3.org/2000/svg"
   xmlns="http://www.w3.org/2000/svg"
   xmlns:xlink="http://www.w3.org/1999/xlink"
   xmlns:sodipodi="http://sodipodi.sourceforge.net/DTD/sodipodi-0.dtd"
   xmlns:inkscape="http://www.inkscape.org/namespaces/inkscape"
   width="48"
   height="48"
   id="svg2"
   sodipodi:version="0.32"
   inkscape:version="0.45"
   version="1.0"
   sodipodi:docbase="/home/qwerty/.icons/qw3rtY_new/scalable/actions"
   sodipodi:docname="gnome-run.svg"
   inkscape:output_extension="org.inkscape.output.svg.inkscape"
   sodipodi:modified="true">
  <defs
     id="defs4">
    <linearGradient
       inkscape:collect="always"
       id="linearGradient3198">
      <stop
         style="stop-color:black;stop-opacity:1;"
         offset="0"
         id="stop3200" />
      <stop
         style="stop-color:black;stop-opacity:0;"
         offset="1"
         id="stop3202" />
    </linearGradient>
    <radialGradient
       inkscape:collect="always"
       xlink:href="#linearGradient3198"
       id="radialGradient3204"
       cx="15.3125"
       cy="34.65625"
       fx="15.3125"
       fy="34.65625"
       r="9.5"
       gradientTransform="matrix(1,0,0,1.003289,0,-0.114001)"
       gradientUnits="userSpaceOnUse" />
    <radialGradient
       inkscape:collect="always"
       xlink:href="#linearGradient3198"
       id="radialGradient3208"
       gradientUnits="userSpaceOnUse"
       gradientTransform="matrix(1,0,0,1.003289,0,-0.114001)"
       cx="15.3125"
       cy="34.65625"
       fx="15.3125"
       fy="34.65625"
       r="9.5" />
  </defs>
  <sodipodi:namedview
     id="base"
     pagecolor="#ffffff"
     bordercolor="#666666"
     borderopacity="1.0"
     inkscape:pageopacity="0.0"
     inkscape:pageshadow="2"
     inkscape:zoom="4"
     inkscape:cx="50.198246"
     inkscape:cy="36.741677"
     inkscape:document-units="px"
     inkscape:current-layer="layer1"
     showgrid="true"
     gridempspacing="2"
     gridspacingx="0.5px"
     gridspacingy="0.5px"
     inkscape:window-width="1051"
     inkscape:window-height="738"
     inkscape:window-x="227"
     inkscape:window-y="212"
     inkscape:showpageshadow="false"
     width="48px"
     height="48px"
     gridtolerance="10000"
     inkscape:grid-points="false"
     inkscape:grid-bbox="true"
     showborder="true"
     borderlayer="true"
     inkscape:guide-bbox="false"
     inkscape:object-paths="false"
     objecttolerance="10000"
     guidetolerance="10000" />
  <metadata
     id="metadata7">
    <rdf:RDF>
      <cc:Work
         rdf:about="">
        <dc:format>image/svg+xml</dc:format>
        <dc:type
           rdf:resource="http://purl.org/dc/dcmitype/StillImage" />
        <dc:creator>
          <cc:Agent>
            <dc:title>Lapo Calamandrei</dc:title>
          </cc:Agent>
        </dc:creator>
        <dc:title>System Run</dc:title>
        <cc:license
           rdf:resource="http://creativecommons.org/licenses/GPL/2.0/" />
        <dc:subject>
          <rdf:Bag>
            <rdf:li>run</rdf:li>
            <rdf:li>launch</rdf:li>
            <rdf:li>exec</rdf:li>
          </rdf:Bag>
        </dc:subject>
      </cc:Work>
      <cc:License
         rdf:about="http://creativecommons.org/licenses/GPL/2.0/">
        <cc:permits
           rdf:resource="http://web.resource.org/cc/Reproduction" />
        <cc:permits
           rdf:resource="http://web.resource.org/cc/Distribution" />
        <cc:requires
           rdf:resource="http://web.resource.org/cc/Notice" />
        <cc:permits
           rdf:resource="http://web.resource.org/cc/DerivativeWorks" />
        <cc:requires
           rdf:resource="http://web.resource.org/cc/ShareAlike" />
        <cc:requires
           rdf:resource="http://web.resource.org/cc/SourceCode" />
      </cc:License>
    </rdf:RDF>
  </metadata>
  <g
     inkscape:label="Livello 1"
     inkscape:groupmode="layer"
     id="layer1">
    <g
       id="g2904"
       transform="matrix(0.965926,0.258819,-0.258819,0.965926,8.16213,8.6355)">
      <path
         id="path2779"
         d="M 31,0.5 C 30.438064,0.53030302 29.8842,0.547001 29.34375,0.625 L 29.125,3.71875 C 28.16536,3.9344947 27.275486,4.3022815 26.46875,4.8125 L 24.125,2.78125 C 22.999999,3.5000009 22.5,4 21.78125,5.125 L 23.8125,7.46875 C 23.302281,8.2754859 22.934495,9.1653595 22.71875,10.125 L 19.625,10.34375 C 19.547,10.8842 19.5,11.438062 19.5,12 C 19.499999,12.561939 19.547001,13.115801 19.625,13.65625 L 22.71875,13.875 C 22.934495,14.834641 23.302281,15.724514 23.8125,16.53125 L 21.78125,18.875 C 22.5,19.999999 23,20.5 24.125,21.21875 L 26.46875,19.1875 C 27.275486,19.697719 28.165359,20.065505 29.125,20.28125 L 29.34375,23.375 C 29.8842,23.452999 30.438063,23.5 31,23.5 C 31.561936,23.5 32.115801,23.452999 32.65625,23.375 L 32.875,20.28125 C 33.834641,20.065505 34.724514,19.697719 35.53125,19.1875 L 37.875,21.21875 C 39.000002,20.499999 39.5,20 40.21875,18.875 L 38.1875,16.53125 C 38.697719,15.724514 39.065505,14.834641 39.28125,13.875 L 42.375,13.65625 C 42.452999,13.115801 42.499999,12.561939 42.5,12 C 42.5,11.438063 42.452999,10.884199 42.375,10.34375 L 39.28125,10.125 C 39.065505,9.1653595 38.697719,8.2754859 38.1875,7.46875 L 40.21875,5.125 C 39.569261,4.0173152 39,3.5 37.875,2.78125 L 35.53125,4.8125 C 34.724514,4.3022815 33.834641,3.9344947 32.875,3.71875 L 32.65625,0.625 C 32.1158,0.54700102 31.561938,0.5 31,0.5 z M 31,9.5 C 32.380001,9.5000003 33.499999,10.619998 33.5,12 C 33.500001,13.380003 32.380003,14.5 31,14.5 C 29.619998,14.5 28.5,13.380003 28.5,12 C 28.5,10.619998 29.619998,9.5 31,9.5 z "
         style="fill:#303030;fill-opacity:1;stroke:none;stroke-width:1.99999964;stroke-linecap:square;stroke-linejoin:miter;stroke-miterlimit:4;stroke-dasharray:none;stroke-opacity:1" />
    </g>
    <g
       id="g2924"
       transform="matrix(0.965926,0.258819,-0.258819,0.965926,-8.58787,-6.8645)">
      <path
         id="path2926"
         d="M 31,0.5 C 30.438064,0.53030302 29.8842,0.547001 29.34375,0.625 L 29.125,3.71875 C 28.16536,3.9344947 27.275486,4.3022815 26.46875,4.8125 L 24.125,2.78125 C 22.999999,3.5000009 22.5,4 21.78125,5.125 L 23.8125,7.46875 C 23.302281,8.2754859 22.934495,9.1653595 22.71875,10.125 L 19.625,10.34375 C 19.547,10.8842 19.5,11.438062 19.5,12 C 19.499999,12.561939 19.547001,13.115801 19.625,13.65625 L 22.71875,13.875 C 22.934495,14.834641 23.302281,15.724514 23.8125,16.53125 L 21.78125,18.875 C 22.5,19.999999 23,20.5 24.125,21.21875 L 26.46875,19.1875 C 27.275486,19.697719 28.165359,20.065505 29.125,20.28125 L 29.34375,23.375 C 29.8842,23.452999 30.438063,23.5 31,23.5 C 31.561936,23.5 32.115801,23.452999 32.65625,23.375 L 32.875,20.28125 C 33.834641,20.065505 34.724514,19.697719 35.53125,19.1875 L 37.875,21.21875 C 39.000002,20.499999 39.5,20 40.21875,18.875 L 38.1875,16.53125 C 38.697719,15.724514 39.065505,14.834641 39.28125,13.875 L 42.375,13.65625 C 42.452999,13.115801 42.499999,12.561939 42.5,12 C 42.5,11.438063 42.452999,10.884199 42.375,10.34375 L 39.28125,10.125 C 39.065505,9.1653595 38.697719,8.2754859 38.1875,7.46875 L 40.21875,5.125 C 39.569261,4.0173152 39,3.5 37.875,2.78125 L 35.53125,4.8125 C 34.724514,4.3022815 33.834641,3.9344947 32.875,3.71875 L 32.65625,0.625 C 32.1158,0.54700102 31.561938,0.5 31,0.5 z M 31,9.5 C 32.380001,9.5000003 33.499999,10.619998 33.5,12 C 33.500001,13.380003 32.380003,14.5 31,14.5 C 29.619998,14.5 28.5,13.380003 28.5,12 C 28.5,10.619998 29.619998,9.5 31,9.5 z "
         style="fill:#303030;fill-opacity:1;stroke:none;stroke-width:1.99999964;stroke-linecap:square;stroke-linejoin:miter;stroke-miterlimit:4;stroke-dasharray:none;stroke-opacity:1" />
    </g>
    <path
       style="fill:#303030;fill-opacity:1;stroke:none;stroke-width:2;stroke-linecap:round;stroke-linejoin:miter;stroke-miterlimit:4;stroke-dasharray:none;stroke-opacity:1"
       d="M 15.15625,26.75 C 14.667854,26.768775 14.184245,26.843793 13.71875,26.9375 L 13.6875,26.9375 C 13.33804,27.00907 12.989707,27.107915 12.65625,27.21875 C 12.173912,27.37907 11.723532,27.5766 11.28125,27.8125 L 11.9375,30.9375 C 11.461256,31.290214 11.013429,31.702683 10.65625,32.1875 L 7.5625,31.5625 C 7.3061026,32.046885 7.0717231,32.530857 6.90625,33.0625 C 6.676383,33.801032 6.5309966,34.599931 6.5,35.40625 L 9.5625,36.4375 C 9.632137,37.029968 9.764473,37.618191 10,38.15625 L 7.875,40.53125 C 8.1526891,40.972567 8.4647247,41.395896 8.8125,41.78125 L 9.4375,42.375 C 9.825721,42.730401 10.241422,43.060104 10.6875,43.34375 L 13.0625,41.21875 C 13.347986,41.346023 13.626055,41.447799 13.9375,41.53125 C 14.232216,41.610219 14.549433,41.685451 14.84375,41.71875 L 15.84375,44.75 C 16.332146,44.731225 16.815755,44.656207 17.28125,44.5625 L 17.3125,44.5625 C 17.66196,44.49093 18.010293,44.392085 18.34375,44.28125 C 18.826088,44.12093 19.276468,43.9234 19.71875,43.6875 L 19.0625,40.5625 C 19.538744,40.209787 19.986571,39.797317 20.34375,39.3125 L 23.4375,39.9375 C 23.693897,39.453115 23.928277,38.969143 24.09375,38.4375 C 24.323617,37.698968 24.469003,36.900069 24.5,36.09375 L 21.4375,35.0625 C 21.367863,34.470032 21.235527,33.881809 21,33.34375 L 23.125,30.96875 C 22.847311,30.527433 22.535275,30.104104 22.1875,29.71875 L 21.5625,29.125 C 21.174279,28.769599 20.758578,28.439896 20.3125,28.15625 L 17.9375,30.28125 C 17.652013,30.153977 17.373945,30.052201 17.0625,29.96875 C 16.767784,29.889781 16.450567,29.814549 16.15625,29.78125 L 15.15625,26.75 z M 15.28125,33.75 C 15.394759,33.737329 15.508957,33.743053 15.625,33.75 C 15.75762,33.757939 15.897952,33.776783 16.03125,33.8125 C 17.097631,34.098233 17.723237,35.214866 17.4375,36.28125 C 17.151764,37.347638 16.035131,37.973235 14.96875,37.6875 C 13.902369,37.401767 13.276764,36.285135 13.5625,35.21875 C 13.781268,34.4023 14.486686,33.838694 15.28125,33.75 z "
       id="path2978" />
  </g>
</svg>
